<?xml version="1.0" standalone="no"?><!DOCTYPE svg PUBLIC "-//W3C//DTD SVG 1.1//EN" "http://www.w3.org/Graphics/SVG/1.1/DTD/svg11.dtd"><svg class="icon" width="200px" height="200.00px" viewBox="0 0 1024 1024" version="1.1" xmlns="http://www.w3.org/2000/svg"><path d="M609.853 7.365L460.12 291.656l276.197 95.101L934.61 7.365H609.853z m0 0" fill="#FFFFFF" /><path d="M609.853 7.365L460.12 291.656l87.009 31.362L704.955 7.365h-95.102z m0 0" fill="#2157CC" /><path d="M649.309 355.395l87.008 31.362L934.61 7.365h-95.097l-190.204 348.03z m0 0" fill="#DF202A" /><path d="M420.665 7.365l149.733 284.29-276.197 95.101L95.904 7.365h324.761z m0 0" fill="#FFFFFF" /><path d="M420.665 7.365l149.733 284.29-87.008 31.362L325.564 7.365h95.101z m0 0" fill="#2378F1" /><path d="M381.205 355.395l-87.004 31.362L95.904 7.365h95.102l190.199 348.03z m0 0" fill="#F5222D" /><path d="M216.374 279.73l180.085 9.105 117.36-126.465 117.356 126.464 188.178-9.105-9.104 180.081 134.557 124.442-134.557 117.356 8.093 188.179-179.074-8.094-126.464 134.557-126.465-134.557-179.069 8.094 8.093-188.179L80.806 584.253 216.374 459.81l-8.093-180.081h8.093z m0 0" fill="#FFDA35" /><path d="M283.15 588.095c0 126.464 102.18 229.66 229.655 229.66 127.479 0 229.658-102.185 229.658-229.66 0-126.463-102.179-229.658-229.658-229.658-127.475 0-229.655 103.195-229.655 229.658z m0 0" fill="#FABA00" /><path d="M549.865 463.075v250.041h-41.96V511.57l-32.158 18.401v-46.603l32.158-20.292h41.96z" fill="#FFFFFF" /></svg>