<?xml version="1.0" standalone="no"?><!DOCTYPE svg PUBLIC "-//W3C//DTD SVG 1.1//EN" "http://www.w3.org/Graphics/SVG/1.1/DTD/svg11.dtd"><svg class="icon" width="200px" height="200.00px" viewBox="0 0 1024 1024" version="1.1" xmlns="http://www.w3.org/2000/svg"><path d="M607.402 7.365l-149.733 284.29 276.197 95.101L932.159 7.365H607.402z m0 0" fill="#FFFFFF" /><path d="M607.402 7.365l-149.733 284.29 87.009 31.362L702.504 7.365h-95.102z m0 0" fill="#2157CC" /><path d="M646.858 355.395l87.008 31.362L932.159 7.365h-95.097l-190.204 348.03z m0 0" fill="#DF202A" /><path d="M418.214 7.365l149.733 284.29-276.197 95.102L93.453 7.365h324.761z m0 0" fill="#FFFFFF" /><path d="M418.214 7.365l149.733 284.29-87.008 31.362L323.113 7.365h95.101z m0 0" fill="#2378F1" /><path d="M378.754 355.395l-87.004 31.362L93.453 7.365h95.102l190.199 348.03z m0 0" fill="#F5222D" /><path d="M216.374 279.738l180.085 9.105L513.82 162.379l117.356 126.464 188.178-9.105-9.104 180.081 134.557 124.442-134.558 117.356 8.093 188.179-179.074-8.094-126.464 134.557-126.465-134.558-179.069 8.094 8.093-188.179L80.806 584.261l135.568-124.442-8.093-180.081h8.093z m0 0" fill="#DBDBDB" /><path d="M283.15 589.318c0 126.464 102.18 229.659 229.655 229.659 127.479 0 229.658-102.185 229.658-229.659 0-126.463-102.179-229.658-229.658-229.658-127.475-0.001-229.655 103.195-229.655 229.658z m0 0" fill="#AAAAAA" /><path d="M442.127 715.887V679.43l86.5-114.531c4.471-5.847 7.938-11.866 10.405-18.057 2.463-6.191 3.697-12.038 3.697-17.541v-0.344c0-8.483-2.552-15.074-7.653-19.776-5.102-4.699-12.354-7.051-21.753-7.051-8.942 0-16.224 2.811-21.84 8.426-5.618 5.619-9.002 13.645-10.146 24.075v0.172h-42.304v-0.172c2.408-22.812 10.146-40.498 23.216-53.052s29.979-18.83 50.731-18.83c22.929 0 40.697 5.734 53.31 17.197 12.611 11.466 18.916 27.63 18.916 48.495v0.172c0 10.09-1.921 20.352-5.761 30.782-3.841 10.434-9.143 20.12-15.906 29.063l-67.067 88.048h90.111v39.381H442.127z" fill="#FFFFFF" /></svg>