<?xml version="1.0" standalone="no"?><!DOCTYPE svg PUBLIC "-//W3C//DTD SVG 1.1//EN" "http://www.w3.org/Graphics/SVG/1.1/DTD/svg11.dtd"><svg class="icon" width="200px" height="200.00px" viewBox="0 0 1024 1024" version="1.1" xmlns="http://www.w3.org/2000/svg"><path d="M609.853 7.365L460.12 291.656l276.197 95.101L934.61 7.365H609.853z m0 0" fill="#FFFFFF" /><path d="M609.853 7.365L460.12 291.656l87.009 31.362L704.955 7.365h-95.102z m0 0" fill="#2157CC" /><path d="M649.309 355.395l87.008 31.362L934.61 7.365h-95.097l-190.204 348.03z m0 0" fill="#DF202A" /><path d="M420.665 7.365l149.733 284.29-276.197 95.101L95.904 7.365h324.761z m0 0" fill="#FFFFFF" /><path d="M420.665 7.365l149.733 284.29-87.008 31.362L325.564 7.365h95.101z m0 0" fill="#2378F1" /><path d="M381.205 355.395l-87.004 31.362L95.904 7.365h95.102l190.199 348.03z m0 0" fill="#F5222D" /><path d="M216.374 279.73l180.085 9.105 117.36-126.465 117.356 126.464 188.178-9.105-9.104 180.081 134.557 124.442-134.557 117.356 8.093 188.179-179.074-8.094-126.464 134.557-126.465-134.557-179.069 8.094 8.093-188.179L80.806 584.253 216.374 459.81l-8.093-180.081h8.093z m0 0" fill="#BD806B" /><path d="M283.15 588.095c0 126.464 102.18 229.66 229.655 229.66 127.479 0 229.658-102.185 229.658-229.66 0-126.463-102.179-229.658-229.658-229.658-127.475 0-229.655 103.195-229.655 229.658z m0 0" fill="#7F5146" /><path d="M515.3 716.211c-21.783 0-39.668-5.788-53.654-17.369-13.989-11.579-21.955-27.971-23.904-49.183v-0.172h42.132v0.172c1.376 8.598 4.928 15.22 10.662 19.862 5.732 4.644 13.126 6.965 22.184 6.965 10.318 0 18.286-2.779 23.904-8.341 5.616-5.559 8.426-13.44 8.426-23.645v-7.223c0-11.006-2.493-19.518-7.481-25.538-4.986-6.018-12.123-9.028-21.409-9.028h-19.432v-39.209h19.432c7.911 0 14.016-2.607 18.314-7.825 4.3-5.215 6.449-12.524 6.449-21.925v-6.535c0-8.827-2.322-15.619-6.964-20.379-4.644-4.756-11.208-7.136-19.691-7.136-7.682 0-14.188 2.408-19.518 7.223-5.332 4.815-8.972 11.638-10.921 20.464v0.172h-41.96v-0.172c2.864-21.437 10.891-38.032 24.075-49.785 13.182-11.75 29.578-17.626 49.183-17.626 21.781 0 38.663 5.533 50.644 16.594 11.98 11.065 17.971 26.629 17.971 46.69v8.082c0 12.038-3.155 22.528-9.458 31.47-6.306 8.942-15.248 15.536-26.827 19.776 12.838 2.751 22.785 9.23 29.837 19.432 7.049 10.205 10.575 23.16 10.575 38.865v8.083c0 21.324-6.336 37.863-19.003 49.613-12.668 11.754-30.523 17.628-53.566 17.628z" fill="#FFFFFF" /></svg>